<?xml version="1.0" standalone="no"?>
<!DOCTYPE svg PUBLIC "-//W3C//DTD SVG 20010904//EN"
 "http://www.w3.org/TR/2001/REC-SVG-20010904/DTD/svg10.dtd">
<svg version="1.0" xmlns="http://www.w3.org/2000/svg"
 width="512.000000pt" height="512.000000pt" viewBox="0 0 512.000000 512.000000"
 preserveAspectRatio="xMidYMid meet">

<g transform="translate(0.000000,512.000000) scale(0.100000,-0.100000)"
fill="#000000" stroke="none">
<path d="M361 4499 c-172 -34 -318 -182 -351 -358 -14 -74 -14 -3088 0 -3162
34 -180 179 -325 359 -359 74 -14 4308 -14 4382 0 180 34 325 179 359 359 14
74 14 3088 0 3162 -34 180 -179 325 -359 359 -67 12 -4325 12 -4390 -1z m4379
-309 c26 -13 47 -34 60 -60 20 -39 20 -56 20 -1570 0 -1514 0 -1531 -20 -1570
-13 -26 -34 -47 -60 -60 -39 -20 -54 -20 -2180 -20 -2126 0 -2141 0 -2180 20
-26 13 -47 34 -60 60 -20 39 -20 56 -20 1570 0 1514 0 1531 20 1570 12 24 35
47 58 59 36 20 66 20 2180 21 2128 0 2143 0 2182 -20z"/>
<path d="M1370 3894 c-266 -57 -470 -311 -470 -584 0 -273 206 -529 470 -584
71 -15 71 -15 -50 -36 -319 -57 -604 -327 -691 -655 -26 -98 -37 -357 -20
-450 35 -185 178 -330 360 -365 72 -13 990 -13 1062 0 182 35 325 180 360 365
17 93 6 352 -20 450 -87 328 -372 598 -691 655 -121 21 -121 21 -50 36 220 46
408 236 455 459 43 204 -16 397 -164 546 -149 149 -347 207 -551 163z m252
-312 c59 -26 124 -91 151 -151 30 -64 30 -178 0 -242 -27 -60 -92 -125 -152
-152 -64 -30 -178 -30 -242 0 -129 59 -202 206 -169 342 43 180 242 278 412
203z m3 -1187 c225 -47 413 -235 460 -460 8 -38 15 -123 15 -188 0 -141 -16
-184 -80 -217 -38 -19 -58 -20 -520 -20 -462 0 -482 1 -520 20 -64 33 -80 76
-80 217 1 222 49 354 179 484 149 149 342 207 546 164z"/>
<path d="M3098 3589 c-43 -22 -78 -81 -78 -129 0 -50 35 -107 80 -130 38 -19
58 -20 520 -20 462 0 482 1 520 20 45 23 80 80 80 130 0 50 -35 107 -80 130
-38 19 -57 20 -522 20 -461 -1 -485 -2 -520 -21z"/>
<path d="M2798 2989 c-43 -22 -78 -81 -78 -129 0 -50 35 -107 80 -130 38 -20
57 -20 820 -20 763 0 782 0 820 20 45 23 80 80 80 130 0 50 -35 107 -80 130
-38 20 -57 20 -822 20 -760 -1 -784 -1 -820 -21z"/>
<path d="M2798 2389 c-43 -22 -78 -81 -78 -129 0 -50 35 -107 80 -130 38 -20
57 -20 820 -20 763 0 782 0 820 20 45 23 80 80 80 130 0 50 -35 107 -80 130
-38 20 -57 20 -822 20 -760 -1 -784 -1 -820 -21z"/>
<path d="M2798 1789 c-43 -22 -78 -81 -78 -129 0 -50 35 -107 80 -130 38 -20
57 -20 820 -20 763 0 782 0 820 20 45 23 80 80 80 130 0 50 -35 107 -80 130
-38 20 -57 20 -822 20 -760 -1 -784 -1 -820 -21z"/>
</g>
</svg>
